<svg width="81" height="81" viewBox="0 0 64 64" xml:space="preserve" xmlns="http://www.w3.org/2000/svg">
  <path d="M37 18c-.5 0-1 .5-1 1s.5 1 1 1 1-.4 1-1-.4-1-1-1zm8.2 0a1 1 0 0 0 0 2c.6 0 1-.4 1-1s-.5-1-1-1zm8.1 0a1 1 0 0 0 0 2c.6 0 1-.4 1-1s-.4-1-1-1zm-8.1 28c-5.2-3-6.7-2.7-10.6-.5-2 1.3-4.5.5-8.7-3a33.7 33.7 0 0 1-4.7-4.6c-3.2-4-4-7.5-3-8.6 3-3.2 2.4-6-.3-10.7-1.6-3-3.4-6-5.8-6.8-1.7-.5-4.2.8-5 1.3-2 1.3-3.8 3.6-4.8 6A20.1 20.1 0 0 0 2 32.4a46.8 46.8 0 0 0 11.6 17.8 47 47 0 0 0 17.8 11.6c1.8.6 4.1 1 6.6 1a17 17 0 0 0 6.7-1.3c2.4-1 4.7-2.9 6-4.8.5-.8 1.8-3.3 1.3-5-.7-2.4-3.8-4.2-6.8-5.8zm-1 1.7c1.9 1 5.3 2.8 5.9 4.5 0 .4 0 1-.3 1.7l-13.5-7c2.5-1.5 3.5-1.7 8 .8zm-32.6-34c1.7.5 3.5 4 4.5 5.9 2.6 4.6 2.6 6 1 8L9.6 14l1.5-.3h.4zm32.3 46a18 18 0 0 1-11.9.2 44.7 44.7 0 0 1-17-11.1 44.7 44.7 0 0 1-11-17c-1-3-1.5-8 .2-11.9a13 13 0 0 1 3.9-5L16 29.7c-.4 2.4 1 6 3.8 9.4a35.4 35.4 0 0 0 5 5c3 2.5 6.3 4.6 9.3 3.8L49 55.7c-1.1 1.6-3 3.1-5 4z"/>
  <path d="M61 10.8a17.9 17.9 0 1 0-30.5 18.4l-2.7 4.6a1 1 0 0 0 1 1.5l7.7-.6a17.8 17.8 0 0 0 24.5-24zM52.5 33a15.8 15.8 0 0 1-15.3-.3 1 1 0 0 0-.6-.2l-6.1.6 2-3.5a1 1 0 0 0 0-1.1L31 26.4a15.9 15.9 0 1 1 21.4 6.7z"/>
</svg>
