<svg xmlns="http://www.w3.org/2000/svg" width="64" height="64" viewBox="0 0 64.3 64.3" xml:space="preserve" stroke="#000" stroke-width="0">
  <path d="M5.9 34.7c-2 0-3.8-.6-5-1.2L0 37.2a13 13 0 0 0 5.6 1.2c5.4 0 8-2.8 8-6.1 0-2.8-1.7-4.6-5.2-6-2.5-1-3.6-1.5-3.6-2.7 0-1 1-2 2.9-2s3.3.6 4 1l1-3.6c-1-.5-2.7-1-5-1-4.6 0-7.4 2.6-7.4 6 0 2.8 2.1 4.6 5.4 5.8C8 30.6 9 31.3 9 32.6c0 1.3-1 2.1-3.1 2.1zm23.3-.3h-8.1v-4.7h7.3v-3.6h-7.3V22h7.7v-3.7H16.6v19.8h12.6zm15.1 5.2c2.8 0 5.3-1 7.3-2.7l4 3.7c0 .4.1.8.4 1.1l5.8 5.4a1.5 1.5 0 0 0 2.1 0c.6-.7.6-1.6 0-2.2L58 39.5c-.3-.3-.8-.4-1.2-.4L53 35.5a11.3 11.3 0 0 0-8.7-18.7 11.4 11.4 0 0 0 0 22.8zm0-19.8a8.4 8.4 0 1 1 0 16.8 8.4 8.4 0 0 1 0-16.8z" stroke="none"/>
</svg>
