<svg version="1.1" id="_x32_" xmlns="http://www.w3.org/2000/svg" viewBox="0 0 512 512" xml:space="preserve" width="64" height="64" fill="#000" stroke="#000" stroke-width="0">
  <g id="SVGRepo_iconCarrier">
    <style>
      .st0{fill:#000}
    </style>
    <path class="st0" d="M293 307h132v113H293zm-206 2h155v17H87zm0 92h155v18H87zm0-46h155v17H87z"/>
    <path class="st0" d="M416 0H96C43 0 0 43 0 96v303c0 63 50 113 113 113h286c63 0 113-50 113-113V96c0-53-43-96-96-96zm49 399a65 65 0 0 1-66 66H113a65 65 0 0 1-66-66V119h418v280z"/>
    <path class="st0" d="M89 268h35c19 0 31-9 31-27 0-10-6-18-12-20v-1c6-3 11-9 11-19 0-14-10-24-30-24H89l-1 1v89l1 1zm18-75h15c8 0 12 4 12 10 0 7-4 11-12 11h-14l-1-1v-20zm0 37 1-1h15c8 0 12 5 12 12s-4 11-12 11h-15l-1-1v-21zm75 38h59l1-1v-15l-1-2h-41v-72l-1-1h-17l-2 1v89l2 1zm111 1c16 0 28-7 33-22 2-6 2-11 2-25 0-13 0-18-2-25-5-14-17-22-33-22s-29 8-34 22c-2 7-2 12-2 25 0 14 0 19 2 25 5 15 18 22 34 22zm-15-66c2-7 7-10 15-10 7 0 12 3 14 10 1 3 2 7 2 19s-1 17-2 20c-2 6-7 10-14 10-8 0-13-4-15-10l-1-20 1-19zm110 66c16 0 29-8 33-22 2-5 2-13 2-21v-7l-1-2h-31l-2 2v12l2 2h12l1 1-1 9c-2 6-8 9-15 9-8 0-13-4-15-10l-1-20 1-19c2-6 7-10 15-10 7 0 12 3 16 9l2 1 14-6v-2c-4-11-15-20-32-20-16 0-29 8-34 22-2 7-2 12-2 25 0 14 0 19 2 25 5 15 18 22 34 22z"/>
  </g>
</svg>
