<svg xmlns="http://www.w3.org/2000/svg" width="77" height="77" viewBox="0 0 1800 1800" xml:space="preserve">
  <path d="M980.1 1427h-181v-118.6c-69.5-6.1-141.7-26-190.7-53l-21-11.7 52.3-204 35 19c33.9 18.6 103.2 49.8 187 49.8 43.2 0 86.8-13.7 86.8-44.4 0-20.5-13.2-44-109-76.4C728 950.1 599.7 887.6 599.7 736c0-118 78-208.6 205.4-241.3V373.1h181.1v108.6A444.2 444.2 0 0 1 1146 523l23.4 11-52.7 198.5-35-16.7c-30.3-14.6-81-39-160.4-39-27.5 0-73.6 5-73.6 38.3 0 25.2 67.1 53 125.5 74.2 156.5 54.8 223.4 131.9 223.4 257.7 0 62.6-22 119.5-63.6 164.3-37.5 40.6-90 69.6-152.8 84.6v131zm-119-62h57v-120.4l25.8-4.4c117.6-20.3 190.6-94.3 190.6-193.1 0-81.3-31-146.3-182.2-199.3-91.4-33.3-166.6-66.2-166.6-132.6 0-48.4 35.6-100.2 135.5-100.2 68.2 0 119.2 15.6 154.5 30.1l20.2-76.1a413.4 413.4 0 0 0-141.6-27l-30-.9v-106H867v110.2l-25.3 4.7c-112.7 21-180 90.6-180 185.9 0 88.7 59 146.5 197.7 193 78.5 26.6 151.1 61.3 151.1 135.2 0 64.6-58.4 106.4-148.9 106.4a453.8 453.8 0 0 1-181.2-39.9l-20.7 80.9a480.1 480.1 0 0 0 171.2 36.8l30.1.9V1365z"/>
  <path fill="none" d="m1394.4 1646.8 13.6-28.2c-5.9 4.2-11.8 8.4-17.8 12.4l4.2 15.8z"/>
  <path d="M894.4 1721.6c-453 0-821.6-368.6-821.6-821.6S441.4 78.4 894.4 78.4 1716.1 447 1716.1 900a816.5 816.5 0 0 1-103.2 398.2l61.6 16.5A878.1 878.1 0 0 0 1778 900c0-487.2-396.4-883.6-883.7-883.6C407.2 16.4 10.8 412.8 10.8 900c0 487.2 396.4 883.6 883.6 883.6a877 877 0 0 0 427-110.3l-16.5-61.8a816.2 816.2 0 0 1-410.5 110.1z"/>
  <path d="M1661.6 1783.6c-8 0-15.9-3-22-9l-150.3-150.4-48.3 100.5a31 31 0 0 1-57.9-5.4l-111.2-415a31 31 0 0 1 38-38l415 111.3a31 31 0 0 1 5.4 57.8l-100.5 48.4L1780 1634a31 31 0 0 1 0 43.9l-96.6 96.5c-6 6-14 9.1-21.9 9.1zm-181.2-243.2a31 31 0 0 1 21.9 9l159.3 159.4 52.7-52.8-159.3-159.3a31 31 0 0 1 8.5-49.8l64.6-31.1-282.4-75.7 75.7 282.4 31-64.6a31 31 0 0 1 28-17.5zM1140.3 292.5c111.2 0 327.7 121.7 327.7 344.7a31 31 0 1 0 62 0c0-116.1-51.3-223.7-144.4-303-73.9-63-170.2-103.7-245.3-103.7a31 31 0 0 0 0 62z"/>
</svg>
