<svg height="64" width="64" xmlns="http://www.w3.org/2000/svg" viewBox="0 0 502 502" xml:space="preserve" stroke="#000" stroke-width="0">
  <g stroke="none">
    <path d="M428 74a249 249 0 0 0-354 0 249 249 0 0 0 0 354 249 249 0 0 0 354 0 249 249 0 0 0 0-354zM251 482a231 231 0 1 1 1-463 231 231 0 0 1-1 463z"/>
    <path d="M251 41c-71 0-129 58-129 129a35 35 0 0 0 70 0 59 59 0 0 1 118 0c0 33-26 60-59 60-19 0-35 16-35 35v69a35 35 0 0 0 70 0v-39a130 130 0 0 0 94-125c0-71-58-129-129-129zm23 236c-5 1-8 5-8 10v47a15 15 0 0 1-30 0v-69c0-8 7-15 15-15a79 79 0 0 0 0-159c-44 0-79 36-79 79a15 15 0 0 1-30 0 109 109 0 1 1 132 107zm-23 110c-19 0-35 15-35 35v4a35 35 0 0 0 70 0v-4c0-20-16-35-35-35zm15 39a15 15 0 0 1-30 0v-4a15 15 0 0 1 30 0v4zM59 291c-3-13-4-27-4-40a10 10 0 1 0-20 0c0 15 2 30 4 44a10 10 0 0 0 20-4zm114 140c-44-19-79-54-100-97a10 10 0 0 0-18 8 216 216 0 0 0 114 108 10 10 0 0 0 4-19z"/>
  </g>
</svg>
