<svg width="64" height="64" viewBox="0 0 24 24" xmlns="http://www.w3.org/2000/svg" stroke="#000" stroke-width="0">
  <g stroke="none">
    <path d="M11.8 2.2h.2c5 0 10 1.1 10 3.3V14h-.5a1.5 1.5 0 0 0-.3 0H21v-2a6.2 6.2 0 0 1-1.3.7 1.5 1.5 0 0 0-1.2-.7c1.6-.5 2.5-1 2.5-1.5V7a18.4 18.4 0 0 1-9 1.8h-.4l-.3-.7.9-.3c5.4 0 8.8-1.4 8.8-2.3 0-1-3.5-2.3-9-2.3h-.5l.2-.5a1 1 0 0 0 .1-.5zM14 20.7l-2 .1c-5.6 0-9-1.5-9-2.5V12a6.8 6.8 0 0 0 1.6.8 1 1 0 0 1-.3-.5l-.4-.9a4.3 4.3 0 0 1-.2 0l-1 .4a1 1 0 0 1-.7 0v6.5c0 2.3 5.2 3.5 10 3.5a29.1 29.1 0 0 0 2 0 1.5 1.5 0 0 1 0-.3zm-6.3-8.2a1 1 0 0 1-.9.5H5.3a25.9 25.9 0 0 0 6.7.8 30.7 30.7 0 0 0 4-.3 1.5 1.5 0 0 1 .4-1 28.1 28.1 0 0 1-4.4.3 28.3 28.3 0 0 1-4.3-.3zM6 8a2 2 0 1 1 2-2 2 2 0 0 1-2 2zM5 6a1 1 0 1 0 1-1 1 1 0 0 0-1 1zM1.2 9.7 1.9 8l-.2-.6L0 6.8V5.2l1.6-.6.3-.6-.7-1.6 1.1-1.2 1.6.7.6-.2.7-1.7h1.6l.6 1.6.6.3 1.6-.7 1.2 1.1-.7 1.6.2.6 1.7.7v1.6l-1.6.6-.3.6.7 1.6-1.1 1.2-1.6-.7-.6.2-.7 1.7H5.2l-.6-1.6-.6-.3-1.6.7zm1.2-2.8L3 8l-.6 1.3.4.4L4 9l1.1.6.5 1.3h.6L7 9.6 8 9l1.2.6.5-.4L9 8l.6-1.1 1.3-.5v-.6L9.6 5 9 4l.6-1.2-.4-.5L8 3l-1.1-.6L6.3 1h-.6L5 2.4 4 3l-1.3-.6-.4.4L3 4l-.6 1.1-1.3.5v.6zM23 15.5v1a.5.5 0 0 1-.5.5h-.3l-.6 4a.5.5 0 0 1 .4.5v1a.5.5 0 0 1-.5.5h-1a.5.5 0 0 1-.5-.5v-.3l-3-.6a.5.5 0 0 1-.5.4h-1a.5.5 0 0 1-.5-.5v-1a.5.5 0 0 1 .3-.5l-.5-2h-.3a.5.5 0 0 1-.5-.5v-1a.5.5 0 0 1 .5-.5h1l1.5-1.6v-.9a.5.5 0 0 1 .5-.5h1a.5.5 0 0 1 .5.5v.6l2.2 1a.5.5 0 0 1 .3-.1h1a.5.5 0 0 1 .5.5zm-7 1v.3l2 .5a.5.5 0 0 1 .3-.3l-.5-2h-.2zm2.7-1.5.5 2h.3a.5.5 0 0 1 .2 0l1.3-.8v-.3l-2.2-1a.5.5 0 0 1-.1 0zm2.6 2-1.3.8v.7a.5.5 0 0 1-.1.3l1 2 .5-3.8a.5.5 0 0 1-.1 0zm-5.6 1 .5 2h.2l1.6-1.6v-.2l-2-.5a.5.5 0 0 1-.3.3zm4.3 3.4a.5.5 0 0 1 .1-.2l-1-2.2h-.5L17 20.6v.2z"/>
    <path fill="none" d="M0 0h24v24H0z"/>
  </g>
</svg>
