<svg height="64" width="64" xmlns="http://www.w3.org/2000/svg" viewBox="0 0 512 512" xml:space="preserve" stroke="#000" stroke-width="0">
  <path d="M95.3 490.1V512h15.6v-6.3h199.4v6.3h15.6v-21.9z" stroke="none"/>
  <path d="M311.5 317.9V198.7H121v119.2H41.5v47.4H65V512h15.7V365.3h262V512h15.6V365.3H383V318h-71.5zM136.7 214.3h159.2V318h-25.3v-48H255v48h-79.4v-48H160v48h-23.3V214.3zm230.7 135.4H57.2v-16.1h310.2v16zM180.6 71.5v111H252v-111h-71.3zm55.7 95.4h-40V87.2h40v79.7zM391.1 0a79.4 79.4 0 0 0 0 158.7 79.4 79.4 0 0 0 0-158.7zm0 143a63.8 63.8 0 1 1 .2-127.5 63.8 63.8 0 0 1-.2 127.6z" stroke="none"/>
  <path d="M391.1 23.8a55.6 55.6 0 1 0 .1 111.2 55.6 55.6 0 0 0 0-111.2zm0 95.4a39.9 39.9 0 1 1 .1-79.8 39.9 39.9 0 0 1 0 79.8z" stroke="none"/>
  <path d="M382.3 59.1v17.7h-14.6v15.7h30.2V59.1z" stroke="none"/>
</svg>
