<svg width="64" height="64" viewBox="0 0 48 48" id="a" xmlns="http://www.w3.org/2000/svg" fill="#000" stroke="#000" stroke-width="1.1">
  <g id="SVGRepo_iconCarrier">
    <defs>
      <style>
        .b{fill:none;stroke:#000;stroke-linecap:round;stroke-linejoin:round}
      </style>
    </defs>
    <path class="b" d="M13.2 18.6H7.6a2 2 0 0 0-2 2v19.8a2 2 0 0 0 2 2.1h32.8c1.1 0 2-1 2-2V20.6a2 2 0 0 0-2-2.1H35"/>
    <rect class="b" x="14.1" y="35.8" width="20" height="3.3" rx=".4" ry=".4"/>
    <rect class="b" x="10.7" y="29.8" width="3.4" height="3.4" rx=".4" ry=".4"/>
    <rect class="b" x="16.6" y="29.8" width="3.4" height="3.4" rx=".4" ry=".4"/>
    <path class="b" d="M25.8 30.4v2.3c0 .3-.2.4-.4.4h-2.5a.4.4 0 0 1-.5-.4h0v-2.3"/>
    <rect class="b" x="28.3" y="29.8" width="3.4" height="3.4" rx=".4" ry=".4"/>
    <rect class="b" x="34.1" y="29.8" width="3.4" height="3.4" rx=".4" ry=".4"/>
    <rect class="b" x="10.7" y="23.8" width="3.4" height="3.4" rx=".4" ry=".4"/>
    <path class="b" d="M18.3 27.2H17a.4.4 0 0 1-.4-.5V26m15.1-.1v.8c0 .3-.2.5-.5.5H30"/>
    <rect class="b" x="34.1" y="23.8" width="3.4" height="3.4" rx=".4" ry=".4"/>
    <path class="b" d="M34.3 23.9 24 31.6 14 24c-.5-.4-.8-1-.8-1.7v-15c0-1 .7-1.7 1.7-1.7h18.5c1 0 1.7.8 1.7 1.7h0v15c0 .7-.3 1.3-.8 1.7Z"/>
    <path class="b" d="M19.7 23V10h3c3 0 5.6 2.5 5.6 5.7v1.6c0 3.1-2.5 5.7-5.7 5.7h-3Z"/>
  </g>
</svg>
