<svg height="64" width="64" xmlns="http://www.w3.org/2000/svg" viewBox="0 0 493.7 493.7" xml:space="preserve" stroke="#000" stroke-width="0">
  <g stroke="none">
    <path d="m79.6 243.1-20 20.1 45.2 45.3 20.1-20.1a119 119 0 0 0 27.1 11.2V328h64v-28.4a121 121 0 0 0 27.1-11.2l20.1 20 45.3-45.2-20.1-20.1a119 119 0 0 0 11.2-27.1H328v-64h-28.4a121 121 0 0 0-11.2-27.1l20-20.1-45.2-45.3-20.1 20.1A121 121 0 0 0 216 68.4V40h-64v28.4a121 121 0 0 0-27.1 11.2l-20.1-20-45.3 45.2 20.1 20.1A121 121 0 0 0 68.4 152H40v64h28.4a121 121 0 0 0 11.2 27.1zM56 168h25l1.5-6.3c2.6-12 7.3-23.3 14-33.7l3.5-5.4-17.8-17.8 22.6-22.6 17.8 17.7 5.4-3.4a103.1 103.1 0 0 1 33.7-14L168 81V56h32v25l6.3 1.5c12 2.6 23.3 7.3 33.7 14l5.4 3.5 17.8-17.8 22.6 22.6-17.7 17.8 3.4 5.4a103.1 103.1 0 0 1 14 33.7l1.4 6.3H312v32h-25l-1.5 6.3c-2.6 12-7.3 23.3-14 33.7l-3.5 5.4 17.8 17.8-22.6 22.6-17.8-17.7-5.4 3.4a103.1 103.1 0 0 1-33.7 14L200 287v25h-32v-25l-6.3-1.5c-12-2.6-23.3-7.3-33.7-14l-5.4-3.5-17.8 17.8-22.6-22.6 17.7-17.8-3.4-5.4a103.1 103.1 0 0 1-14-33.7L81 200H56v-32z"/>
    <path d="M184 272a88.1 88.1 0 0 0 0-176 88.1 88.1 0 0 0 0 176zm40-28.2a71.6 71.6 0 0 1-80 0V232a24 24 0 0 1 24-24h32a24 24 0 0 1 24 24v11.8zM208 152a24 24 0 1 1-48 0 24 24 0 0 1 48 0zm-26-40a40 40 0 1 0 4 0 72 72 0 0 1 53.7 117.5A40 40 0 0 0 200 192h-32a40 40 0 0 0-39.7 37.5A72 72 0 0 1 182 112.1z"/>
    <path d="m91.3 416-48-48L80 331.3l28.7 28.7h150.6L360 259.3V108.7L331.3 80 368 43.3l48 48v224l66.3 66.4 11.4-11.4-61.7-61.6v-224L347.3 0h-14.6L288 44.7v14.6l56 56v137.4L252.7 344H115.3l-56-56H44.7L0 332.7v14.6L84.7 432h224l61.6 61.7 11.4-11.4-66.4-66.3h-224zM304 52.7v-1.4L339.3 16h1.4l16 16L320 68.7l-16-16zm-288 288v-1.4L51.3 304h1.4l16 16L32 356.7l-16-16z"/>
    <path d="M383.6 336a47.7 47.7 0 0 0-33.7 81.3l76.4 76.4 11.4-11.4-76.4-76.4a31.6 31.6 0 0 1 44.7-44.7l76.3 76.5 11.4-11.4-76.4-76.4c-9-9-21-13.9-33.7-13.9z"/>
  </g>
</svg>
